name D:\PhD\Datasets\SharingData_IBEC_VALDUCE\RM1_Comp_0001.mot
datacolumns 46
datarows 4
range 7.51000000 7.54000000
endheader
                time	         pelvis_tilt	     pelvis_rotation	           pelvis_tx	           pelvis_ty	           pelvis_tz	       hip_flexion_r	     hip_adduction_r	      hip_rotation_r	        knee_angle_r	       ankle_angle_r	    subtalar_angle_r	         mtp_angle_r	       hip_flexion_l	     hip_adduction_l	      hip_rotation_l	        knee_angle_l	       ankle_angle_l	    subtalar_angle_l	         mtp_angle_l	    lumbar_extension	      lumbar_bending	     lumbar_rotation	          arm_flex_r	           arm_add_r	           arm_rot_r	        elbow_flex_r	           pro_sup_r	        wrist_flex_r	         wrist_dev_r	          arm_flex_l	           arm_add_l	           arm_rot_l	        elbow_flex_l	           pro_sup_l	        wrist_flex_l	         wrist_dev_l	          end_eff_tx	          end_eff_ty	          end_eff_tz	             goal_tx	             goal_ty	             goal_tz	            elbow_tx	            elbow_ty	            elbow_tz	
          7.51000000	          0.00000000	          0.00000000	        298.57245700	        519.32081557	        363.90429792	          0.00000000	          0.00000000	          0.00000000	          0.00000000	          0.00000000	          0.00000000	          0.00000000	          0.00000000	          0.00000000	          0.00000000	          0.00000000	          0.00000000	          0.00000000	          0.00000000	          1.18924057	          4.08850241	         -1.96155822	          0.64013141	        -44.89553452	          2.59651637	         87.59541321	         84.06046295	          0.00000000	          0.00000000	          0.00000000	          0.00000000	          0.00000000	          0.00000000	          0.00000000	          0.00000000	          0.00000000	        580.91482869	        362.70607258	        628.01406035	        885.23478211	        674.23052933	        573.86749793	        176.77565849	        354.36636574	        738.02417350	
          7.52000000	          0.00000000	          0.00000000	        298.43060790	        519.33499302	        363.99340844	          0.00000000	          0.00000000	          0.00000000	          0.00000000	          0.00000000	          0.00000000	          0.00000000	          0.00000000	          0.00000000	          0.00000000	          0.00000000	          0.00000000	          0.00000000	          0.00000000	          1.13220274	          4.11813593	         -1.99749863	          0.32539847	        -44.83467484	          2.78821731	         87.57102203	         84.18478394	          0.00000000	          0.00000000	          0.00000000	          0.00000000	          0.00000000	          0.00000000	          0.00000000	          0.00000000	          0.00000000	        578.29196246	        357.74197423	        626.12192143	        885.20480514	        674.22051480	        573.85979777	        174.43247907	        353.52298087	        737.39239103	
          7.53000000	          0.00000000	          0.00000000	        298.32733522	        519.38207136	        364.13568585	          0.00000000	          0.00000000	          0.00000000	          0.00000000	          0.00000000	          0.00000000	          0.00000000	          0.00000000	          0.00000000	          0.00000000	          0.00000000	          0.00000000	          0.00000000	          0.00000000	          1.27102637	          4.13422394	         -2.07454920	         -0.23726650	        -44.72562790	          3.01134682	         87.58869171	         84.23983765	          0.00000000	          0.00000000	          0.00000000	          0.00000000	          0.00000000	          0.00000000	          0.00000000	          0.00000000	          0.00000000	        575.57412590	        352.82079925	        624.15927089	        885.21097830	        674.23741098	        573.86029058	        172.14431173	        352.65811124	        736.59755557	
          7.54000000	          0.00000000	          0.00000000	        298.20478041	        519.40960943	        364.26087463	          0.00000000	          0.00000000	          0.00000000	          0.00000000	          0.00000000	          0.00000000	          0.00000000	          0.00000000	          0.00000000	          0.00000000	          0.00000000	          0.00000000	          0.00000000	          0.00000000	          1.25253081	          4.15121222	         -2.10721231	         -0.76730281	        -44.52069855	          3.49991751	         87.64736176	         84.23104095	          0.00000000	          0.00000000	          0.00000000	          0.00000000	          0.00000000	          0.00000000	          0.00000000	          0.00000000	          0.00000000	        572.93651504	        348.15011725	        622.42465190	        885.18950552	        674.22457279	        573.87640882	        169.75728421	        352.02072528	        736.04667624	
